<svg width="980" height="260" viewBox="0 0 980 260" fill="none" xmlns="http://www.w3.org/2000/svg" role="img" aria-labelledby="title desc">
  <title id="title">EnglishLegalese Logo</title>
  <desc id="desc">EnglishLegalese legal English platform logo with E L monogram in a speech document mark.</desc>
  <defs>
    <linearGradient id="navyGrad" x1="0" x2="1" y1="0" y2="1">
      <stop stop-color="#0B1D33"/>
      <stop offset="1" stop-color="#102A47"/>
    </linearGradient>
  </defs>
  <g transform="translate(16 24)">
    <path d="M28 44C28 21.9 45.9 4 68 4h112c22.1 0 40 17.9 40 40v52c0 22.1-17.9 40-40 40H99.2L53 174v-39.1C38.2 128.7 28 114.1 28 97.3V44Z" fill="#F7F5F0" stroke="#0B1D33" stroke-width="8"/>
    <path d="M164 8v42c0 10.5 8.5 19 19 19h36" stroke="#0B1D33" stroke-width="7" stroke-linecap="round"/>
    <text x="68" y="91" font-family="Cormorant Garamond, Georgia, serif" font-size="90" font-weight="700" fill="#0B1D33">E</text>
    <text x="114" y="130" font-family="Cormorant Garamond, Georgia, serif" font-size="88" font-weight="700" fill="#0F4D4F">L</text>
    <path d="M160 82h34M160 101h34M160 120h34" stroke="#C89D3C" stroke-width="5" stroke-linecap="round"/>
  </g>
  <g transform="translate(282 68)">
    <text x="0" y="72" font-family="Cormorant Garamond, Georgia, serif" font-size="92" font-weight="600" fill="#0B1D33" letter-spacing="-2">EnglishLegalese</text>
    <text x="676" y="75" font-family="Cormorant Garamond, Georgia, serif" font-size="45" font-weight="700" fill="#C89D3C">.com</text>
    <path d="M4 118h58" stroke="#C89D3C" stroke-width="3"/>
    <text x="80" y="130" font-family="Inter, Arial, sans-serif" font-size="28" font-weight="600" fill="#0F4D4F">Legal English Teachers + AI Practice</text>
    <path d="M520 118h58" stroke="#C89D3C" stroke-width="3"/>
  </g>
</svg>